<svg xmlns="http://www.w3.org/2000/svg">
    <symbol id="search" fill="none" viewBox="0 0 20 20">
        <path
            d="M9.16667 15.8333C12.8486 15.8333 15.8333 12.8486 15.8333 9.16667C15.8333 5.48477 12.8486 2.5 9.16667 2.5C5.48477 2.5 2.5 5.48477 2.5 9.16667C2.5 12.8486 5.48477 15.8333 9.16667 15.8333Z"
            stroke-width="1.5" stroke-linecap="round" stroke-linejoin="round" />
        <path d="M17.5 17.5L13.875 13.875" stroke-width="1.5" stroke-linecap="round"
            stroke-linejoin="round" />
    </symbol>

    <symbol id="burger" width="26" height="24" viewBox="0 0 26 24">
        <path d="M4 4H22" stroke-width="1.5" stroke-linecap="round" stroke-linejoin="round"/>
        <path d="M4 12H22" stroke-width="1.5" stroke-linecap="round" stroke-linejoin="round"/>
        <path d="M4 20H22" stroke-width="1.5" stroke-linecap="round" stroke-linejoin="round"/>
    </symbol>

    <symbol id="logo" width="82" height="31" viewBox="0 0 82 31">
        <path d="M9.33313 4.7356H1.99048C1.99048 22.2592 1.90201 26.1342 0 27.469V30.569H3.0963C3.31746 25.962 3.14054 21.4412 3.0963 7.5342H6.23683V30.569H9.33313V4.7356Z" />
        <path d="M15.5416 16.2746H20.8495V9.38573C20.8495 5.63989 19.5668 4.30518 17.1339 4.30518C14.48 4.30518 12.4453 5.89823 12.4453 10.1607V25.9621C12.4453 29.6649 13.8165 30.9996 16.5148 30.9996C19.4783 30.9996 20.8938 27.8996 20.8053 23.8093L20.6726 18.6426H20.0533L19.9206 23.6801C19.8322 26.4358 19.2571 28.0718 17.9301 28.0718C16.6916 28.0718 15.5416 27.5983 15.5416 24.4983V16.2746ZM16.8243 7.23295C17.709 7.23295 18.1955 7.6635 18.1955 10.8066V15.6718H15.5416V9.73016C15.5416 8.18016 15.7628 7.23295 16.8243 7.23295Z" />
        <path d="M33.1574 4.73584H23.957V30.5692H27.0533V7.53444H30.0612V30.5692H33.1574V4.73584Z" />
        <path d="M40.4846 0H36.6805V1.98055H40.4846V0ZM41.5462 0V1.98055H45.3502V0H41.5462ZM40.9269 4.30556C38.2729 4.30556 36.2382 5.89862 36.2382 10.1611V25.9625C36.2382 29.6653 37.6094 31 40.3077 31C43.2712 31 44.6867 27.9 44.5982 23.8097L44.4655 18.643H43.8462L43.7135 23.6805C43.6252 26.4362 43.05 28.0722 41.7231 28.0722C40.4846 28.0722 39.3345 27.5987 39.3345 24.4987V16.275H44.6424V9.38612C44.6424 5.64028 43.3598 4.30556 40.9269 4.30556ZM39.3345 15.6722V9.73055C39.3345 8.18055 39.5557 7.23333 40.6173 7.23333C41.502 7.23333 41.9884 7.66388 41.9884 10.8069V15.6722H39.3345Z" />
        <path d="M53.2191 16.49L57.3769 4.73584H53.6614L52.6441 14.5956H52.1575L51.0959 10.0317L49.6362 4.73584H46.1419L50.3882 17.0497L45.9648 30.5692H49.6804L51.0517 18.9442H51.4498L52.5114 24.5844L53.9711 30.5692H57.4654L53.2191 16.49Z" />
        <path d="M68.7511 4.7356H65.6106L61.895 25.2731H61.2759L61.895 15.3273L62.2048 4.7356H59.02V30.569H62.1604L65.8318 10.0314H66.4953L65.876 19.9773L65.6106 30.569H68.7511V4.7356Z" />
        <path d="M78.1735 4.7356V17.0495H74.9445V4.7356H71.8481V30.569H74.9445V17.9106H78.1735V30.569H81.2697V4.7356H78.1735Z" />
    </symbol>

    <symbol id="home" fill="none" width="20" height="20" viewBox="0 0 20 20">
        <path d="M2.5 7.50002L10 1.66669L17.5 7.50002V16.6667C17.5 17.1087 17.3244 17.5326 17.0118 17.8452C16.6993 18.1578 16.2754 18.3334 15.8333 18.3334H4.16667C3.72464 18.3334 3.30072 18.1578 2.98816 17.8452C2.67559 17.5326 2.5 17.1087 2.5 16.6667V7.50002Z" stroke-width="1.5" stroke-linecap="round" stroke-linejoin="round"/>
        <path d="M7.5 18.3333V10H12.5V18.3333" stroke-width="1.5" stroke-linecap="round" stroke-linejoin="round"/>
    </symbol>

    <symbol id="inbox" width="20" height="20" viewBox="0 0 20 20" fill="none">
        <path d="M18.3333 10H13.3333L11.6666 12.5H8.33329L6.66663 10H1.66663" stroke-width="1.5" stroke-linecap="round" stroke-linejoin="round"/>
        <path d="M4.54163 4.25831L1.66663 9.99998V15C1.66663 15.442 1.84222 15.8659 2.15478 16.1785C2.46734 16.4911 2.89127 16.6666 3.33329 16.6666H16.6666C17.1087 16.6666 17.5326 16.4911 17.8451 16.1785C18.1577 15.8659 18.3333 15.442 18.3333 15V9.99998L15.4583 4.25831C15.3203 3.98064 15.1076 3.74696 14.8441 3.58355C14.5806 3.42014 14.2767 3.33348 13.9666 3.33331H6.03329C5.72322 3.33348 5.41935 3.42014 5.15583 3.58355C4.89231 3.74696 4.67961 3.98064 4.54163 4.25831V4.25831Z" stroke-width="1.5" stroke-linecap="round" stroke-linejoin="round"/>
    </symbol>

    <symbol id="list" width="20" height="20" viewBox="0 0 20 20" fill="none">
        <path d="M6.66663 5H17.5" stroke-width="1.5" stroke-linecap="round" stroke-linejoin="round"/>
        <path d="M6.66663 10H17.5" stroke-width="1.5" stroke-linecap="round" stroke-linejoin="round"/>
        <path d="M6.66663 15H17.5" stroke-width="1.5" stroke-linecap="round" stroke-linejoin="round"/>
        <path d="M2.5 5H2.50833" stroke-width="1.5" stroke-linecap="round" stroke-linejoin="round"/>
        <path d="M2.5 10H2.50833" stroke-width="1.5" stroke-linecap="round" stroke-linejoin="round"/>
        <path d="M2.5 15H2.50833" stroke-width="1.5" stroke-linecap="round" stroke-linejoin="round"/>
    </symbol>

    <symbol id="activity" width="20" height="20" viewBox="0 0 20 20" fill="none">
        <path d="M18.3333 10H15L12.5 17.5L7.49996 2.5L4.99996 10H1.66663" stroke-width="1.5" stroke-linecap="round" stroke-linejoin="round"/>
    </symbol>

    <symbol id="users" width="20" height="20" viewBox="0 0 20 20" fill="none">
        <path d="M14.1667 17.5V15.8333C14.1667 14.9493 13.8155 14.1014 13.1904 13.4763C12.5653 12.8512 11.7174 12.5 10.8334 12.5H4.16671C3.28265 12.5 2.43481 12.8512 1.80968 13.4763C1.18456 14.1014 0.833374 14.9493 0.833374 15.8333V17.5" stroke-width="1.5" stroke-linecap="round" stroke-linejoin="round"/>
        <path d="M7.49996 9.16667C9.34091 9.16667 10.8333 7.67428 10.8333 5.83333C10.8333 3.99238 9.34091 2.5 7.49996 2.5C5.65901 2.5 4.16663 3.99238 4.16663 5.83333C4.16663 7.67428 5.65901 9.16667 7.49996 9.16667Z" stroke-width="1.5" stroke-linecap="round" stroke-linejoin="round"/>
        <path d="M19.1666 17.5V15.8333C19.1661 15.0948 18.9203 14.3773 18.4678 13.7936C18.0153 13.2099 17.3817 12.793 16.6666 12.6083" stroke-width="1.5" stroke-linecap="round" stroke-linejoin="round"/>
        <path d="M13.3334 2.60834C14.0504 2.79192 14.6859 3.20892 15.1397 3.7936C15.5936 4.37827 15.8399 5.09736 15.8399 5.8375C15.8399 6.57765 15.5936 7.29674 15.1397 7.88141C14.6859 8.46609 14.0504 8.88309 13.3334 9.06667" stroke-width="1.5" stroke-linecap="round" stroke-linejoin="round"/>
    </symbol>

    <symbol id="plus" width="17" height="16" viewBox="0 0 17 16">
        <path d="M8.5 3.33334V12.6667" stroke-width="1.5" stroke-linecap="round" stroke-linejoin="round"/>
        <path d="M3.83331 8H13.1666" stroke-width="1.5" stroke-linecap="round" stroke-linejoin="round"/>
    </symbol>

    <symbol id="folder" width="20" height="20" viewBox="0 0 20 20" fill="none">
        <path d="M18.3334 15.8333C18.3334 16.2754 18.1578 16.6993 17.8452 17.0118C17.5326 17.3244 17.1087 17.5 16.6667 17.5H3.33335C2.89133 17.5 2.4674 17.3244 2.15484 17.0118C1.84228 16.6993 1.66669 16.2754 1.66669 15.8333V4.16667C1.66669 3.72464 1.84228 3.30072 2.15484 2.98816C2.4674 2.67559 2.89133 2.5 3.33335 2.5H7.50002L9.16669 5H16.6667C17.1087 5 17.5326 5.17559 17.8452 5.48816C18.1578 5.80072 18.3334 6.22464 18.3334 6.66667V15.8333Z"  stroke-width="1.5" stroke-linecap="round" stroke-linejoin="round"/>
    </symbol>
    <symbol id="more" width="24" height="24" viewBox="0 0 24 24">
        <path d="M12 13C12.5523 13 13 12.5523 13 12C13 11.4477 12.5523 11 12 11C11.4477 11 11 11.4477 11 12C11 12.5523 11.4477 13 12 13Z" stroke-width="1.5" stroke-linecap="round" stroke-linejoin="round"/>
        <path d="M12 6C12.5523 6 13 5.55228 13 5C13 4.44772 12.5523 4 12 4C11.4477 4 11 4.44772 11 5C11 5.55228 11.4477 6 12 6Z" stroke-width="1.5" stroke-linecap="round" stroke-linejoin="round"/>
        <path d="M12 20C12.5523 20 13 19.5523 13 19C13 18.4477 12.5523 18 12 18C11.4477 18 11 18.4477 11 19C11 19.5523 11.4477 20 12 20Z" stroke-width="1.5" stroke-linecap="round" stroke-linejoin="round"/>
    </symbol>
    <symbol id="play" viewBox="0 0 29 38">

    </symbol>
</svg>